<svg width="229" height="232" viewBox="0 0 229 232" fill="none" 
  xmlns="http://www.w3.org/2000/svg">
  <g filter="url(#filter0_d)">
    <path fill-rule="evenodd" clip-rule="evenodd" d="M109.343 0.647621C108.121 -0.214123 106.494 -0.216746 105.271 0.644998L95.1872 7.76193C94.2489 8.42431 93.6831 9.51427 93.6831 10.662V51.379L88.7274 47.8678L65.6627 31.5366C64.4421 30.6762 62.8111 30.6723 61.5944 31.534L51.5029 38.6562C50.5659 39.3159 50 40.4059 50 41.5536V79.9333C50 81.0849 50.558 82.1631 51.495 82.8281L119.815 131.347C120.428 131.784 121.14 132 121.855 132C122.578 132 123.295 131.778 123.908 131.338L134.022 124.088C134.955 123.419 135.5 122.35 135.5 121.201V80.4318L140.466 83.9719L163.344 100.282C164.562 101.152 166.203 101.157 167.425 100.293L177.497 93.1808C178.437 92.5185 179 91.4298 179 90.2808V51.9063C179 50.7573 178.445 49.6726 177.506 49.0102L109.343 0.647621Z" fill="url(#paint0_linear)"/>
  </g>
  <path fill-rule="evenodd" clip-rule="evenodd" d="M106.457 60.9693C104.459 59.5991 104.454 56.6512 106.448 55.2747L122.499 44.1958C123.685 43.3768 125.255 43.3804 126.438 44.2046L127.607 45.0193C129.582 46.3957 129.58 49.3193 127.603 50.6929L111.615 61.8014C110.436 62.6207 108.873 62.6255 107.689 61.8136L106.457 60.9693Z" fill="url(#paint1_linear)"/>
  <defs>
    <filter id="filter0_d" x="0" y="0" width="229" height="232" filterUnits="userSpaceOnUse" color-interpolation-filters="sRGB">
      <feFlood flood-opacity="0" result="BackgroundImageFix"/>
      <feColorMatrix in="SourceAlpha" type="matrix" values="0 0 0 0 0 0 0 0 0 0 0 0 0 0 0 0 0 0 127 0"/>
      <feOffset dy="50"/>
      <feGaussianBlur stdDeviation="25"/>
      <feColorMatrix type="matrix" values="0 0 0 0 0 0 0 0 0 0 0 0 0 0 0 0 0 0 0.15 0"/>
      <feBlend mode="normal" in2="BackgroundImageFix" result="effect1_dropShadow"/>
      <feBlend mode="normal" in="SourceGraphic" in2="effect1_dropShadow" result="shape"/>
    </filter>
    <linearGradient id="paint0_linear" x1="50" y1="132" x2="179" y2="132" gradientUnits="userSpaceOnUse">
      <stop/>
      <stop offset="1" stop-color="#434343"/>
    </linearGradient>
    <linearGradient id="paint1_linear" x1="98.4549" y1="57.791" x2="120.046" y2="72.0043" gradientUnits="userSpaceOnUse">
      <stop stop-color="#FBED96"/>
      <stop offset="1" stop-color="#ABECD6"/>
    </linearGradient>
  </defs>
</svg>
